<?xml version="1.0" encoding="utf-8"?>
<!-- Generator: Adobe Illustrator 26.0.2, SVG Export Plug-In . SVG Version: 6.00 Build 0)  -->
<svg version="1.1" id="Layer_1" xmlns="http://www.w3.org/2000/svg" xmlns:xlink="http://www.w3.org/1999/xlink" x="0px" y="0px"
	 viewBox="0 0 80 80" style="enable-background:new 0 0 80 80;" xml:space="preserve">
<style type="text/css">
	.st0{fill:#FFFFFF;}
	.st1{fill:#FFFFFF;fill-opacity:0.75;}
</style>
<g>
	<path class="st0" d="M40,2c21,0,38,17,38,38S61,78,40,78S2,61,2,40S19,2,40,2 M40,0C18,0,0,18,0,40s18,40,40,40s40-18,40-40
		S62,0,40,0L40,0z"/>
</g>
<g>
	<g>
		<path class="st0" d="M46.6,58.5c-0.1,0-0.3,0-0.4-0.1c-0.1-0.1-0.2-0.2-0.3-0.3l-6.3-10.6l-11.8,3.2c-0.2,0-0.4,0-0.5-0.1
			c-0.2-0.1-0.3-0.2-0.4-0.4l-13.8-26C13,24.2,13,24.1,13,23.9c0-0.1,0-0.3,0.1-0.4c0.1-0.1,0.2-0.2,0.3-0.3
			c0.1-0.1,0.2-0.1,0.4-0.1l11.7-1.6c0.2,0,0.3,0,0.5,0.1s0.3,0.2,0.4,0.3l14.1,23.7l16.4-4.5l-5.5-7.8c-0.1-0.1-0.1-0.2-0.1-0.4
			c0-0.1,0-0.3,0-0.4c0-0.1,0.1-0.2,0.2-0.3c0.1-0.1,0.2-0.2,0.4-0.2l7.7-1.8c0.2,0,0.3,0,0.5,0c0.1,0.1,0.3,0.1,0.4,0.3l6.6,8.3
			c0.1,0.1,0.1,0.2,0.2,0.4c0,0.1,0,0.3,0,0.4c0,0.1-0.1,0.3-0.2,0.3c-0.1,0.1-0.2,0.2-0.4,0.2l-7,1.9l6.1,8.6
			c0.1,0.1,0.1,0.2,0.1,0.4c0,0.1,0,0.3,0,0.4c0,0.1-0.1,0.2-0.2,0.3c-0.1,0.1-0.2,0.2-0.3,0.2l-18.3,6.5
			C46.7,58.5,46.6,58.5,46.6,58.5z M41.2,47.1l5.7,9.6l16.6-5.9l-5.8-8.2L41.2,47.1z M15.1,24.6L28,49L38.7,46L25.1,23.2L15.1,24.6z
			 M53.3,33.4l5.1,7.2l6.4-1.7L59.3,32L53.3,33.4z"/>
	</g>
</g>
</svg>
