<?xml version="1.0" encoding="utf-8"?>
<!-- Generator: Adobe Illustrator 26.0.2, SVG Export Plug-In . SVG Version: 6.00 Build 0)  -->
<svg version="1.1" id="Layer_1" xmlns="http://www.w3.org/2000/svg" xmlns:xlink="http://www.w3.org/1999/xlink" x="0px" y="0px"
	 viewBox="0 0 80 80" style="enable-background:new 0 0 80 80;" xml:space="preserve">
<style type="text/css">
	.st0{fill:#FFFFFF;}
	.st1{fill:#FFFFFF;fill-opacity:0.75;}
</style>
<g>
	<g>
		<path class="st0" d="M40,45c2.6,0,4.7-2.1,4.7-4.8c0-2.6-2.1-4.8-4.7-4.8c-2.6,0-4.7,2.1-4.7,4.8C35.3,42.8,37.4,45,40,45z"/>
		<path class="st0" d="M40,51.4c-15,0-27-5-27-11.2c0-6.2,12-11.2,27-11.2s27,5,27,11.2C67,46.4,55,51.4,40,51.4z M40,31.3
			c-14.6,0-24.7,4.5-24.7,8.8c0,4.1,10.1,8.8,24.7,8.8s24.7-4.8,24.7-8.8C64.7,35.9,54.6,31.3,40,31.3z"/>
		<path class="st0" d="M50.8,64.6c-2.3,0-5.4-1.4-8.5-3.8c-4.2-3.3-8.5-8.8-12-15.1c-3.5-6.2-5.9-12.7-6.8-17.9
			c-0.7-5.7,0.2-9.8,3.1-11.5c2.8-1.7,6.8-0.5,11,3.3c4.2,3.3,8.5,8.8,12,15.1c3.5,6.2,5.9,12.7,6.8,17.9c0.9,5.7,0,9.8-2.8,11.5
			C52.7,64.3,51.7,64.6,50.8,64.6z M29.2,17.9c-0.5,0-1.2,0.2-1.4,0.5c-1.9,1-2.6,4.3-1.9,8.8c0.7,5,3.1,11.2,6.6,17.2
			c3.5,6,7.5,11,11.3,14.3c3.5,2.9,6.8,4.1,8.5,3.1c1.9-1,2.3-4.3,1.6-9.1c-0.7-5-3.1-11.2-6.6-17.2c-3.3-6-7.5-11-11.3-14.3
			C33.4,19.1,31.1,17.9,29.2,17.9z"/>
		<path class="st0" d="M29.2,64.6c-0.9,0-1.9-0.2-2.8-0.7c-2.8-1.7-3.8-5.7-2.8-11.5c0.9-5.5,3.3-11.7,6.8-17.9
			c3.5-6.2,7.7-11.5,12-15.1c4.5-3.6,8.5-4.8,11-3.3c5.4,3.1,3.5,16-4,29.4c-3.5,6.2-7.7,11.5-12,15.1
			C34.6,63.4,31.5,64.6,29.2,64.6z M50.8,17.9c-1.9,0-4.2,1.2-6.8,3.3c-4,3.3-8,8.4-11.3,14.3c-3.3,6-5.6,12-6.6,17.2
			c-0.7,4.5-0.2,7.9,1.6,9.1c1.9,1,4.9,0,8.5-3.1c4-3.3,8-8.4,11.3-14.3c7.3-12.9,8.5-24.1,4.7-26.1C52,18.2,51.3,17.9,50.8,17.9z"
			/>
	</g>
</g>
<g>
	<path class="st0" d="M40,2c21,0,38,17,38,38S61,78,40,78S2,61,2,40S19,2,40,2 M40,0C18,0,0,18,0,40s18,40,40,40s40-18,40-40
		S62,0,40,0L40,0z"/>
</g>
</svg>
