<?xml version="1.0" encoding="utf-8"?>
<!-- Generator: Adobe Illustrator 26.0.2, SVG Export Plug-In . SVG Version: 6.00 Build 0)  -->
<svg version="1.1" id="Layer_1" xmlns="http://www.w3.org/2000/svg" xmlns:xlink="http://www.w3.org/1999/xlink" x="0px" y="0px"
	 viewBox="0 0 80 80" style="enable-background:new 0 0 80 80;" xml:space="preserve">
<style type="text/css">
	.st0{fill:#FFFFFF;}
	.st1{fill:#FFFFFF;fill-opacity:0.75;}
</style>
<g>
	<g>
		<path class="st1" d="M63.9,50.8V25.6L42.1,13.1v9.7l8.5,4.9c0.3,0.2,0.3,0.7,0,0.8l-10.2,5.9c-0.3,0.2-0.7,0.2-0.9,0l-10.2-5.9
			c-0.3-0.2-0.3-0.7,0-0.8l8.5-4.9V13L16.1,25.6v25.2l8.4-4.8v-9.9c0-0.3,0.4-0.6,0.7-0.4l10.2,5.9c0.3,0.2,0.5,0.5,0.5,0.8v11.7
			c0,0.3-0.4,0.6-0.7,0.4l-8.5-4.9l-8.4,4.8L40,67l21.8-12.6l-8.4-4.8l-8.5,4.9c-0.3,0.2-0.7-0.1-0.7-0.4V42.4
			c0-0.3,0.2-0.7,0.5-0.8l10.2-5.9c0.3-0.2,0.7,0.1,0.7,0.4V46L63.9,50.8z"/>
		<path class="st0" d="M42,13v9.7l8.5,4.9c0.3,0.2,0.3,0.7,0,0.8l-10.2,5.9c-0.3,0.2-0.7,0.2-0.9,0l-10.1-5.9
			c-0.3-0.2-0.3-0.7,0-0.8l8.5-4.9V13L16.1,25.6L40,39.4l23.9-13.8L42,13z"/>
		<path class="st1" d="M35.1,54.5l-8.5-4.9l-8.4,4.8L39.9,67V39.4L16.1,25.6v25.2l8.4-4.8v-9.9c0-0.3,0.4-0.6,0.7-0.4l10.2,5.9
			c0.3,0.2,0.5,0.5,0.5,0.8v11.7C35.8,54.5,35.4,54.7,35.1,54.5z"/>
	</g>
</g>
<g>
	<path class="st0" d="M40,2c21,0,38,17,38,38S61,78,40,78S2,61,2,40S19,2,40,2 M40,0C18,0,0,18,0,40s18,40,40,40s40-18,40-40
		S62,0,40,0L40,0z"/>
</g>
</svg>
