<?xml version="1.0" encoding="utf-8"?>
<!-- Generator: Adobe Illustrator 26.0.2, SVG Export Plug-In . SVG Version: 6.00 Build 0)  -->
<svg version="1.1" id="Layer_1" xmlns="http://www.w3.org/2000/svg" xmlns:xlink="http://www.w3.org/1999/xlink" x="0px" y="0px"
	 viewBox="0 0 80 80" style="enable-background:new 0 0 80 80;" xml:space="preserve">
<style type="text/css">
	.st0{fill:#FFFFFF;}
	.st1{fill:#FFFFFF;fill-opacity:0.75;}
</style>
<g>
	<g>
		<path class="st0" d="M60,48.8c0.1-0.2,0.1-0.5,0.2-0.8c2.7-10.6-3.9-23.2-14.7-29.8c4.8,6.5,6.9,14.5,5,21.4
			c-0.2,0.6-0.3,1.2-0.6,1.8c-0.2-0.1-0.5-0.3-1-0.5c0,0-10.8-6.8-22.6-18.7c-0.3-0.3,6.3,9.5,13.7,17.4
			c-3.5-1.9-13.3-9.2-19.5-14.9c0.7,1.3,1.7,2.5,2.7,3.7c5.1,6.6,11.9,14.8,20,21.1c-5.7,3.5-13.7,3.8-21.7,0
			c-1.9-1-3.9-2.1-5.6-3.4c3.4,5.5,8.6,10.2,15,13c7.6,3.2,15.1,3,20.7,0.1h0.1c0.2-0.1,0.4-0.2,0.6-0.4c2.7-1.4,8-2.8,10.9,2.8
			C64,62.8,65.5,55.5,60,48.8z"/>
	</g>
</g>
<g>
	<path class="st0" d="M40,2c21,0,38,17,38,38S61,78,40,78S2,61,2,40S19,2,40,2 M40,0C18,0,0,18,0,40s18,40,40,40s40-18,40-40
		S62,0,40,0L40,0z"/>
</g>
</svg>
